<svg width="40" height="40" viewBox="0 0 40 40" fill="none" xmlns="http://www.w3.org/2000/svg">
  <g clip-path="url(#clip0_1_2)">
    <path d="M20 40C31.0457 40 40 31.0457 40 20C40 8.9543 31.0457 0 20 0C8.9543 0 0 8.9543 0 20C0 31.0457 8.9543 40 20 40Z" fill="url(#paint0_linear_1_2)"/>
    <path d="M20 36C28.8366 36 36 28.8366 36 20C36 11.1634 28.8366 4 20 4C11.1634 4 4 11.1634 4 20C4 28.8366 11.1634 36 20 36Z" fill="white"/>
    <path d="M15 12C17.7614 12 20 14.2386 20 17C20 19.7614 17.7614 22 15 22C12.2386 22 10 19.7614 10 17C10 14.2386 12.2386 12 15 12Z" fill="url(#paint1_linear_1_2)"/>
    <path d="M25 12C27.7614 12 30 14.2386 30 17C30 19.7614 27.7614 22 25 22C22.2386 22 20 19.7614 20 17C20 14.2386 22.2386 12 25 12Z" fill="url(#paint2_linear_1_2)"/>
    <path d="M12 26C12 23.7909 13.7909 22 16 22H24C26.2091 22 28 23.7909 28 26C28 28.2091 26.2091 30 24 30H16C13.7909 30 12 28.2091 12 26Z" fill="url(#paint3_linear_1_2)"/>
    <text x="20" y="27" text-anchor="middle" class="text-lg font-bold fill-white">meme</text>
  </g>
  <defs>
    <linearGradient id="paint0_linear_1_2" x1="0" y1="0" x2="40" y2="40" gradientUnits="userSpaceOnUse">
      <stop stop-color="#667eea"/>
      <stop offset="1" stop-color="#764ba2"/>
    </linearGradient>
    <linearGradient id="paint1_linear_1_2" x1="10" y1="12" x2="20" y2="22" gradientUnits="userSpaceOnUse">
      <stop stop-color="#f093fb"/>
      <stop offset="1" stop-color="#f5576c"/>
    </linearGradient>
    <linearGradient id="paint2_linear_1_2" x1="20" y1="12" x2="30" y2="22" gradientUnits="userSpaceOnUse">
      <stop stop-color="#4facfe"/>
      <stop offset="1" stop-color="#00f2fe"/>
    </linearGradient>
    <linearGradient id="paint3_linear_1_2" x1="12" y1="22" x2="28" y2="30" gradientUnits="userSpaceOnUse">
      <stop stop-color="#fa709a"/>
      <stop offset="1" stop-color="#fee140"/>
    </linearGradient>
    <clipPath id="clip0_1_2">
      <rect width="40" height="40" fill="white"/>
    </clipPath>
  </defs>
</svg>